<svg width="105" height="48" viewBox="0 0 105 48" fill="none" xmlns="http://www.w3.org/2000/svg">
<circle opacity="0.2" cx="51" cy="24" r="24" fill="#4788F5"/>
<path d="M2.40234 34.0767C2.99479 33.0627 3.62142 31.9119 4.28223 30.6245C4.94303 29.3257 5.61523 27.9357 6.29883 26.4546C6.98242 24.9621 7.66602 23.3898 8.34961 21.7378C9.0332 20.0858 9.69401 18.3939 10.332 16.6621C10.9701 14.9189 11.5739 13.1473 12.1436 11.3472C12.7132 9.54704 13.2259 7.7583 13.6816 5.98096C14.012 6.29997 14.3538 6.61898 14.707 6.93799C15.0716 7.24561 15.4248 7.55322 15.7666 7.86084C16.1084 8.15706 16.4274 8.45329 16.7236 8.74951C17.0312 9.03434 17.2876 9.30208 17.4927 9.55273C17.0711 10.7832 16.5812 12.082 16.0229 13.4492C15.4647 14.805 14.8722 16.1893 14.2456 17.6021C13.619 19.0034 12.9696 20.3991 12.2974 21.7891C11.6366 23.179 10.9814 24.512 10.332 25.7881C9.69401 27.0641 9.08447 28.2604 8.50342 29.377C7.92236 30.4821 7.40397 31.4562 6.94824 32.2993C7.63184 32.2993 8.44076 32.305 9.375 32.3164C10.3092 32.3164 11.3232 32.3221 12.417 32.3335C13.5107 32.3449 14.6615 32.362 15.8691 32.3848C17.0768 32.4076 18.2959 32.436 19.5264 32.4702C19.3441 32.7209 19.1333 32.9943 18.894 33.2905C18.6548 33.5868 18.3984 33.8887 18.125 34.1963C17.863 34.5153 17.5895 34.8229 17.3047 35.1191C17.0312 35.4268 16.7578 35.7116 16.4844 35.9736C15.459 35.9167 14.4678 35.8426 13.5107 35.7515C12.5651 35.6603 11.6479 35.5521 10.7593 35.4268C9.87061 35.3128 8.99902 35.1932 8.14453 35.0679C7.30143 34.9425 6.46403 34.8172 5.63232 34.6919C5.507 34.9198 5.40446 35.085 5.32471 35.1875C5.25635 35.29 5.22786 35.3299 5.23926 35.3071L2.40234 34.0767ZM24.0039 31.2568C24.0039 31.5986 24.1292 31.7695 24.3799 31.7695C24.6419 31.7695 24.9894 31.5645 25.4224 31.1543C25.8553 30.7327 26.3053 30.203 26.7725 29.5649C26.7497 29.4396 26.7326 29.3314 26.7212 29.2402C26.7212 29.1377 26.7212 29.0465 26.7212 28.9668C26.7212 28.7389 26.744 28.4712 26.7896 28.1636C26.8465 27.8446 26.9775 27.4857 27.1826 27.0869C27.3193 26.7793 27.4845 26.4774 27.6782 26.1812C27.8377 25.9191 28.0314 25.64 28.2593 25.3438C28.4871 25.0361 28.7378 24.7513 29.0112 24.4893L29.1138 24.3867C29.2277 24.5234 29.3758 24.7114 29.5581 24.9507C29.7518 25.1785 29.9398 25.4178 30.1221 25.6685C30.3158 25.9077 30.481 26.1299 30.6177 26.335C30.7658 26.54 30.8569 26.6825 30.8911 26.7622C30.8911 27.2521 30.8 27.742 30.6177 28.2319C30.4468 28.7218 30.2132 29.2061 29.917 29.6846C30.6006 29.639 31.2329 29.4681 31.814 29.1719C32.4064 28.8643 33.0216 28.3687 33.6597 27.6851C33.7622 27.7876 33.8932 27.93 34.0527 28.1123C34.2236 28.2832 34.3604 28.4313 34.4629 28.5566C33.9844 29.0579 33.5116 29.4738 33.0444 29.8042C32.5887 30.1346 32.1273 30.3966 31.6602 30.5903C31.2044 30.784 30.7373 30.9264 30.2588 31.0176C29.7803 31.0973 29.2904 31.1372 28.7891 31.1372C28.4017 31.5474 27.9858 31.9233 27.5415 32.2651C27.0972 32.6069 26.6414 32.9032 26.1743 33.1538C25.7186 33.4045 25.2629 33.5981 24.8071 33.7349C24.3514 33.8716 23.9185 33.9399 23.5083 33.9399C23.1665 33.9399 22.8133 33.8374 22.4487 33.6323C22.0841 33.4272 21.7537 33.1766 21.4575 32.8804C21.1613 32.5728 20.9163 32.248 20.7227 31.9062C20.529 31.5645 20.4321 31.2625 20.4321 31.0005C20.4321 30.1346 20.5518 29.2744 20.791 28.4199C21.0189 27.5654 21.3835 26.7679 21.8848 26.0273C22.3747 25.2754 23.0013 24.6146 23.7646 24.0449C24.5394 23.4753 25.4565 23.0423 26.5161 22.7461C26.5503 22.7233 26.6073 22.7062 26.687 22.6948C26.7782 22.6834 26.8522 22.6777 26.9092 22.6777C27.0687 22.6777 27.2339 22.7404 27.4048 22.8657C27.5871 22.9797 27.7523 23.1107 27.9004 23.2588C28.0599 23.4069 28.1909 23.555 28.2935 23.7031C28.396 23.8398 28.4473 23.931 28.4473 23.9766C28.4245 24.0335 28.339 24.1076 28.1909 24.1987C28.0428 24.2785 27.8434 24.4209 27.5928 24.626C27.3421 24.8311 27.0459 25.1273 26.7041 25.5146C26.3623 25.8906 25.9863 26.3919 25.5762 27.0186C24.9609 27.9414 24.5451 28.7788 24.3286 29.5308C24.1121 30.2713 24.0039 30.8467 24.0039 31.2568ZM47.5879 28.7959C46.6081 29.7985 45.6226 30.7214 44.6313 31.5645C43.6515 32.3962 42.6774 33.1766 41.709 33.9058C41.5267 34.4299 41.3273 34.9596 41.1108 35.4951C40.9058 36.042 40.6893 36.5889 40.4614 37.1357C40.131 37.8877 39.7437 38.6055 39.2993 39.2891C38.8664 39.984 38.4049 40.6221 37.915 41.2031C37.4251 41.7956 36.9238 42.3254 36.4111 42.7925C35.8984 43.271 35.4028 43.6755 34.9243 44.0059C34.4572 44.3363 34.0243 44.5926 33.6255 44.7749C33.2153 44.9572 32.8678 45.0483 32.583 45.0483C32.3893 45.0483 32.1615 44.9629 31.8994 44.792C31.6374 44.6211 31.3924 44.4046 31.1646 44.1426C30.9253 43.8919 30.7259 43.6128 30.5664 43.3052C30.3955 43.009 30.3101 42.7241 30.3101 42.4507C30.3101 41.8582 30.5151 41.2772 30.9253 40.7075C31.3241 40.1379 31.8823 39.5511 32.6001 38.9473C33.3065 38.3434 34.1382 37.7054 35.0952 37.0332C36.0522 36.3724 37.089 35.6546 38.2056 34.8799C38.4562 34.2305 38.7354 33.4614 39.043 32.5728C39.362 31.6727 39.738 30.5675 40.1709 29.2573C39.7607 29.827 39.2822 30.391 38.7354 30.9492C38.1885 31.4961 37.6245 31.986 37.0435 32.4189C36.4624 32.8519 35.8813 33.1994 35.3003 33.4614C34.7306 33.7349 34.2065 33.8716 33.728 33.8716C33.6027 33.8716 33.4432 33.8089 33.2495 33.6836C33.0444 33.5697 32.8451 33.4159 32.6514 33.2222C32.4463 33.0285 32.2754 32.8006 32.1387 32.5386C31.9906 32.2765 31.9165 31.9974 31.9165 31.7012C31.9165 31.3252 32.0076 30.8752 32.1899 30.3511C32.3722 29.8156 32.64 29.2516 32.9932 28.6592C33.335 28.0667 33.7508 27.4629 34.2407 26.8477C34.742 26.2324 35.3003 25.6571 35.9155 25.1216C36.5422 24.5747 37.2201 24.0905 37.9492 23.6689C38.6898 23.236 39.4759 22.9056 40.3076 22.6777C40.4329 22.6777 40.6095 22.729 40.8374 22.8315C41.0653 22.9227 41.2874 23.0309 41.5039 23.1562C41.7318 23.2702 41.9255 23.3841 42.085 23.498C42.2559 23.612 42.3413 23.686 42.3413 23.7202C42.3413 23.743 42.3242 23.7715 42.29 23.8057C42.2673 23.8171 42.2502 23.8228 42.2388 23.8228C41.9767 23.9823 41.6406 24.2044 41.2305 24.4893C40.8203 24.7741 40.3874 25.0988 39.9316 25.4634C39.4759 25.8166 39.0202 26.1982 38.5645 26.6084C38.1087 27.0186 37.6929 27.4287 37.3169 27.8389C36.9523 28.2376 36.6561 28.625 36.4282 29.001C36.2004 29.3656 36.0864 29.696 36.0864 29.9922C36.0864 30.0947 36.1092 30.1859 36.1548 30.2656C36.2118 30.334 36.2915 30.3682 36.394 30.3682C36.6789 30.3682 36.9979 30.2713 37.3511 30.0776C37.7157 29.8726 38.0859 29.6105 38.4619 29.2915C38.8379 28.9725 39.2139 28.6193 39.5898 28.2319C39.9658 27.8332 40.319 27.4458 40.6494 27.0698C40.9912 26.6825 41.2931 26.3236 41.5552 25.9932C41.8172 25.6628 42.0223 25.395 42.1704 25.1899C42.1932 25.1672 42.2103 25.1444 42.2217 25.1216C42.2445 25.0988 42.2729 25.076 42.3071 25.0532C42.3983 25.076 42.5179 25.1899 42.666 25.395C42.8255 25.6001 42.9793 25.8394 43.1274 26.1128C43.2756 26.3748 43.4009 26.6369 43.5034 26.8989C43.6174 27.161 43.6743 27.349 43.6743 27.4629V27.4971C43.6743 27.5085 43.6629 27.5483 43.6401 27.6167C43.5148 28.0155 43.3553 28.5737 43.1616 29.2915C42.9679 30.0093 42.723 30.8353 42.4268 31.7695C43.1559 31.1885 43.8851 30.5789 44.6143 29.9409C45.3548 29.3029 46.0897 28.6193 46.8188 27.8901L47.5879 28.7959ZM32.3267 42.7583C32.5545 42.7583 32.8849 42.5817 33.3179 42.2285C33.7394 41.8867 34.1895 41.4424 34.668 40.8955C35.1465 40.36 35.6136 39.7619 36.0693 39.1011C36.5365 38.4517 36.9238 37.8193 37.2314 37.2041C36.4909 37.7396 35.813 38.2409 35.1978 38.708C34.5825 39.1865 34.0584 39.6479 33.6255 40.0923C33.1812 40.5366 32.8394 40.9639 32.6001 41.374C32.3494 41.7956 32.2241 42.2114 32.2241 42.6216C32.2241 42.7127 32.2583 42.7583 32.3267 42.7583ZM48.7842 31.2568C48.7842 31.5986 48.9095 31.7695 49.1602 31.7695C49.4222 31.7695 49.7697 31.5645 50.2026 31.1543C50.6356 30.7327 51.0856 30.203 51.5527 29.5649C51.5299 29.4396 51.5129 29.3314 51.5015 29.2402C51.5015 29.1377 51.5015 29.0465 51.5015 28.9668C51.5015 28.7389 51.5243 28.4712 51.5698 28.1636C51.6268 27.8446 51.7578 27.4857 51.9629 27.0869C52.0996 26.7793 52.2648 26.4774 52.4585 26.1812C52.618 25.9191 52.8117 25.64 53.0396 25.3438C53.2674 25.0361 53.5181 24.7513 53.7915 24.4893L53.894 24.3867C54.008 24.5234 54.1561 24.7114 54.3384 24.9507C54.5321 25.1785 54.7201 25.4178 54.9023 25.6685C55.096 25.9077 55.2612 26.1299 55.3979 26.335C55.5461 26.54 55.6372 26.6825 55.6714 26.7622C55.6714 27.2521 55.5802 27.742 55.3979 28.2319C55.2271 28.7218 54.9935 29.2061 54.6973 29.6846C55.3809 29.639 56.0132 29.4681 56.5942 29.1719C57.1867 28.8643 57.8019 28.3687 58.4399 27.6851C58.5425 27.7876 58.6735 27.93 58.833 28.1123C59.0039 28.2832 59.1406 28.4313 59.2432 28.5566C58.7646 29.0579 58.2918 29.4738 57.8247 29.8042C57.369 30.1346 56.9076 30.3966 56.4404 30.5903C55.9847 30.784 55.5176 30.9264 55.0391 31.0176C54.5605 31.0973 54.0706 31.1372 53.5693 31.1372C53.182 31.5474 52.7661 31.9233 52.3218 32.2651C51.8774 32.6069 51.4217 32.9032 50.9546 33.1538C50.4989 33.4045 50.0431 33.5981 49.5874 33.7349C49.1317 33.8716 48.6987 33.9399 48.2886 33.9399C47.9468 33.9399 47.5936 33.8374 47.229 33.6323C46.8644 33.4272 46.534 33.1766 46.2378 32.8804C45.9416 32.5728 45.6966 32.248 45.5029 31.9062C45.3092 31.5645 45.2124 31.2625 45.2124 31.0005C45.2124 30.1346 45.332 29.2744 45.5713 28.4199C45.7992 27.5654 46.1637 26.7679 46.665 26.0273C47.1549 25.2754 47.7816 24.6146 48.5449 24.0449C49.3197 23.4753 50.2368 23.0423 51.2964 22.7461C51.3306 22.7233 51.3875 22.7062 51.4673 22.6948C51.5584 22.6834 51.6325 22.6777 51.6895 22.6777C51.849 22.6777 52.0142 22.7404 52.1851 22.8657C52.3674 22.9797 52.5326 23.1107 52.6807 23.2588C52.8402 23.4069 52.9712 23.555 53.0737 23.7031C53.1763 23.8398 53.2275 23.931 53.2275 23.9766C53.2048 24.0335 53.1193 24.1076 52.9712 24.1987C52.8231 24.2785 52.6237 24.4209 52.373 24.626C52.1224 24.8311 51.8262 25.1273 51.4844 25.5146C51.1426 25.8906 50.7666 26.3919 50.3564 27.0186C49.7412 27.9414 49.3254 28.7788 49.1089 29.5308C48.8924 30.2713 48.7842 30.8467 48.7842 31.2568Z" fill="black"/>
</svg>
